<?xml version="1.0" encoding="UTF-8"?>
<svg viewBox="0 0 100 100" version="1.1" xmlns="http://www.w3.org/2000/svg">
  <g><path d="M77,69 C78.6568542,69 80,70.3431458 80,72 C80,73.6568542 78.6568542,75 77,75 L23,75 C21.3431458,75 20,73.6568542 20,72 C20,70.3431458 21.3431458,69 23,69 L77,69 Z M77,47 C78.6568542,47 80,48.3431458 80,50 C80,51.6568542 78.6568542,53 77,53 L23,53 C21.3431458,53 20,51.6568542 20,50 C20,48.3431458 21.3431458,47 23,47 L77,47 Z M77,25 C78.6568542,25 80,26.3431458 80,28 C80,29.6568542 78.6568542,31 77,31 L23,31 C21.3431458,31 20,29.6568542 20,28 C20,26.3431458 21.3431458,25 23,25 L77,25 Z" id="Combined-Shape" fill="#D8D8D8"></path></g>
</svg>