<?xml version="1.0" encoding="UTF-8"?>
<svg width="100px" height="100px" viewBox="0 0 100 100" version="1.1" xmlns="http://www.w3.org/2000/svg" xmlns:xlink="http://www.w3.org/1999/xlink">
    <!-- Generator: Sketch 63.1 (92452) - https://sketch.com -->
    <title>Group</title>
    <desc>Created with Sketch.</desc>
    <g id="Page-1" stroke="none" stroke-width="1" fill="none" fill-rule="evenodd">
        <g id="Group">
            <circle id="Oval" fill="#EEEEEE" cx="50" cy="50" r="50"></circle>
            <path d="M74.9489165,24 C76.0515791,24 76.9274081,24.8317226 76.9957102,25.914474 L77,26.0510835 L77,74.9489165 C77,76.0515791 76.1682774,76.9274081 75.085526,76.9957102 L74.9489165,77 L26.0510835,77 C24.9484209,77 24.0725919,76.1682774 24.0042898,75.085526 L24,74.9489165 L24,26.0510835 C24,24.9484209 24.8317226,24.0725919 25.914474,24.0042898 L26.0510835,24 L74.9489165,24 Z M47.3681318,59.5129282 C37.1104396,53.2353366 30.0189013,60.4299335 28.1103565,62.6281393 L28,62.7563234 L28,72 L73,72 L73,62.1076444 C70.6923076,63.2428326 67.2307694,64.3780212 62.945055,64.3780212 C58.576923,64.3780212 53.3021978,63.1617477 47.3681318,59.5129282 Z M73,28 L28,28 L28,57.7285559 L28.3429608,57.4566005 C33.0969465,53.7686791 40.5793207,51.3140232 49.2333286,56.5428651 L49.5504586,56.7376037 C61.2025689,64.0310094 69.7347672,60.1369651 72.6632991,58.3525541 L73,58.1414523 L73,28 Z M58.5,35 C63.1586539,35 67,38.8413461 67,43.5 C67,48.1586539 63.1586539,52 58.5,52 C53.8413461,52 50,48.1586539 50,43.5 C50,38.8413461 53.8413461,35 58.5,35 Z M58.5,38 C56,38 54,40 54,42.5 C54,45 56,47 58.5,47 C61,47 63,45 63,42.5 C63,40 61,38 58.5,38 Z" id="Shape" fill="#DDDDDD" fill-rule="nonzero"></path>
        </g>
    </g>
</svg>