<?xml version="1.0" encoding="UTF-8"?>
<svg width="200px" height="200px" viewBox="0 0 200 200" version="1.1" xmlns="http://www.w3.org/2000/svg" xmlns:xlink="http://www.w3.org/1999/xlink">
    <!-- Generator: Sketch 63.1 (92452) - https://sketch.com -->
    <title>image</title>
    <desc>Created with Sketch.</desc>
    <g id="Page-1" stroke="none" stroke-width="1" fill="none" fill-rule="evenodd">
        <g id="image" fill-rule="nonzero">
            <rect id="Rectangle" fill="#EEEEEE" x="0" y="0" width="200" height="200"></rect>
            <path d="M120.297214,78 C121.212632,78 121.939735,78.6904867 121.996439,79.5893747 L122,79.7027863 L122,120.297214 C122,121.212632 121.309513,121.939735 120.410625,121.996439 L120.297214,122 L79.7027863,122 C78.7873683,122 78.060265,121.309513 78.0035613,120.410625 L78,120.297214 L78,79.7027863 C78,78.7873683 78.6904867,78.060265 79.5893747,78.0035613 L79.7027863,78 L120.297214,78 Z M97.4017093,107.788695 C88.891624,102.487618 83.0082737,108.563055 81.4248883,110.419318 L81.3333333,110.527562 L81.3333333,118.333333 L118.666667,118.333333 L118.666667,109.979789 C116.752137,110.938392 113.880342,111.896996 110.324786,111.896996 C106.700855,111.896996 102.324786,110.86992 97.4017093,107.788695 Z M118.666667,81.3333333 L81.6666667,81.3333333 L81.6666667,105.956986 L81.9486567,105.73173 C85.8574893,102.677088 92.0096637,100.643938 99.1251813,104.974898 L99.3859327,105.136197 C108.966557,111.1772 115.98192,107.95183 118.389824,106.473833 L118.666667,106.298981 L118.666667,81.3333333 Z M106.5,86.6666667 C110.427885,86.6666667 113.666667,89.9054487 113.666667,93.8333333 C113.666667,97.761218 110.427885,101 106.5,101 C102.572115,101 99.3333333,97.761218 99.3333333,93.8333333 C99.3333333,89.9054487 102.572115,86.6666667 106.5,86.6666667 Z M106.333333,90.3333333 C104.296296,90.3333333 102.666667,91.962963 102.666667,94 C102.666667,96.037037 104.296296,97.6666667 106.333333,97.6666667 C108.37037,97.6666667 110,96.037037 110,94 C110,91.962963 108.37037,90.3333333 106.333333,90.3333333 Z" id="Shape" fill="#DDDDDD"></path>
        </g>
    </g>
</svg>