<?xml version="1.0" encoding="UTF-8"?>
<svg width="1200px" height="400px" viewBox="0 0 1200 400" version="1.1" xmlns="http://www.w3.org/2000/svg" xmlns:xlink="http://www.w3.org/1999/xlink">
    <!-- Generator: Sketch 63.1 (92452) - https://sketch.com -->
    <title>image</title>
    <desc>Created with Sketch.</desc>
    <g id="Page-1" stroke="none" stroke-width="1" fill="none" fill-rule="evenodd">
        <g id="image" fill-rule="nonzero">
            <rect id="Rectangle" fill="#EEEEEE" x="0" y="0" width="1200" height="400"></rect>
            <path d="M648.897833,147 C651.103158,147 652.854816,148.663445 652.99142,150.828948 L653,151.102167 L653,248.897833 C653,251.103158 651.336555,252.854816 649.171052,252.99142 L648.897833,253 L551.102167,253 C548.896842,253 547.145184,251.336555 547.00858,249.171052 L547,248.897833 L547,151.102167 C547,148.896842 548.663445,147.145184 550.828948,147.00858 L551.102167,147 L648.897833,147 Z M593.740482,218.763674 C573.238912,205.992897 559.065387,220.629178 555.250867,225.101083 L555.030303,225.361854 L555.030303,244.166667 L644.969697,244.166667 L644.969697,224.042218 C640.35742,226.351581 633.439006,228.660944 624.873349,228.660944 C616.142968,228.660944 605.600622,226.186626 593.740482,218.763674 Z M644.969697,155.030303 L555.833333,155.030303 L555.833333,214.35092 L556.512673,213.808258 C565.929406,206.449348 580.750553,201.551306 597.892482,211.984982 L598.520656,212.373565 C621.60125,226.92689 638.501897,219.156681 644.302757,215.596051 L644.969697,215.174817 L644.969697,155.030303 Z M615.659091,167.878788 C625.121722,167.878788 632.924242,175.681308 632.924242,185.143939 C632.924242,194.606571 625.121722,202.409091 615.659091,202.409091 C606.19646,202.409091 598.393939,194.606571 598.393939,185.143939 C598.393939,175.681308 606.19646,167.878788 615.659091,167.878788 Z M615.257576,176.712121 C610.350168,176.712121 606.424242,180.638047 606.424242,185.545455 C606.424242,190.452862 610.350168,194.378788 615.257576,194.378788 C620.164983,194.378788 624.090909,190.452862 624.090909,185.545455 C624.090909,180.638047 620.164983,176.712121 615.257576,176.712121 Z" id="Shape" fill="#DDDDDD"></path>
        </g>
    </g>
</svg>