<?xml version="1.0" encoding="UTF-8"?>
<svg width="600" height="600" viewBox="0 0 600 600" version="1.1" xmlns="http://www.w3.org/2000/svg" xmlns:xlink="http://www.w3.org/1999/xlink">
  <rect id="Rectangle" fill="#EEEEEE" x="0" y="0" width="600" height="600"></rect>
  <path d="M360.891641,234 C363.637895,234 365.819205,236.07146 365.989316,238.768124 L366,239.108359 L366,360.891641 C366,363.637895 363.92854,365.819205 361.231876,365.989316 L360.891641,366 L239.108359,366 C236.362105,366 234.180795,363.92854 234.010684,361.231876 L234,360.891641 L234,239.108359 C234,236.362105 236.07146,234.180795 238.768124,234.010684 L239.108359,234 L360.891641,234 Z M292.205128,323.366085 C266.674872,307.462853 249.024821,325.689165 244.274665,331.257953 L244,331.582686 L244,355 L356,355 L356,329.939366 C350.25641,332.815176 341.641026,335.690987 330.974359,335.690987 C320.102564,335.690987 306.974359,332.609761 292.205128,323.366085 Z M356,244 L245,244 L245,317.870957 L245.84597,317.195189 C257.572468,308.031263 276.028991,301.931815 297.375544,314.924695 L298.157798,315.408591 C326.89967,333.531599 347.945759,323.855489 355.169471,319.421498 L356,318.896942 L356,244 Z M319.5,260 C331.283654,260 341,269.716346 341,281.5 C341,293.283654 331.283654,303 319.5,303 C307.716346,303 298,293.283654 298,281.5 C298,269.716346 307.716346,260 319.5,260 Z M319,271 C312.888889,271 308,275.888889 308,282 C308,288.111111 312.888889,293 319,293 C325.111111,293 330,288.111111 330,282 C330,275.888889 325.111111,271 319,271 Z" id="Shape" fill="#DDDDDD"></path>
</svg>
